<svg xmlns="http://www.w3.org/2000/svg" width="960" height="680" viewBox="0 0 960 680" role="img">
  <defs>
    <style>
      text { font-family: Arial, Helvetica, sans-serif; fill: #000; }
      .page { fill: #fff; stroke: #000; stroke-width: 2; }
      .chrome { fill: #fff; stroke: #000; stroke-width: 2; }
      .box { fill: #fff; stroke: #000; stroke-width: 1.6; rx: 4; }
      .button { fill: #fff; stroke: #000; stroke-width: 2; rx: 4; }
      .line { stroke: #000; stroke-width: 1.5; }
      .dash { stroke: #000; stroke-width: 1.4; stroke-dasharray: 6 5; fill: none; }
      .title { font-size: 22px; font-weight: 700; }
      .label { font-size: 16px; font-weight: 700; }
      .smallBold { font-size: 13px; font-weight: 700; }
      .small { font-size: 13px; }
      .tiny { font-size: 11px; }
    </style>
  </defs>
  <rect width="960" height="680" fill="#fff"/>
  <text x="480" y="38" class="title" text-anchor="middle">Wireframe 01 - Trang chu cong khai</text>
  <rect x="70" y="70" width="820" height="560" class="page"/>
  <rect x="70" y="70" width="820" height="42" class="chrome"/>
  <circle cx="94" cy="91" r="5" fill="#fff" stroke="#000" stroke-width="1.5"/>
  <circle cx="114" cy="91" r="5" fill="#fff" stroke="#000" stroke-width="1.5"/>
  <circle cx="134" cy="91" r="5" fill="#fff" stroke="#000" stroke-width="1.5"/>
  <rect x="170" y="82" width="470" height="18" class="box"/>
  
  <rect x="100" y="135" width="760" height="54" class="box"/>
  <text x="125" y="167" class="smallBold" text-anchor="start">LOGO</text>
  <text x="595" y="167" class="small" text-anchor="start">Tin tuc</text>
  <text x="660" y="167" class="small" text-anchor="start">Dang nhap</text>
  <rect x="735" y="146" width="95" height="34" class="button"/>
<text x="782.5" y="168" class="smallBold" text-anchor="middle">Dang ky</text>

  <rect x="100" y="215" width="760" height="150" class="box"/>
  <text x="480" y="260" class="label" text-anchor="middle">BANNER TUYEN SINH</text>
  <text x="480" y="288" class="small" text-anchor="middle">Thong diep gioi thieu chuong trinh va ky tuyen sinh</text>
  <rect x="415" y="315" width="130" height="34" class="button"/>
<text x="480" y="337" class="smallBold" text-anchor="middle">Dang ky ngay</text>

  <text x="100" y="410" class="label" text-anchor="start">Tin tuc / Thong bao cong khai</text>
  <rect x="100" y="430" width="230" height="120" class="box"/>
  <rect x="365" y="430" width="230" height="120" class="box"/>
  <rect x="630" y="430" width="230" height="120" class="box"/>
  <line x1="120" y1="470" x2="310" y2="470" class="line"/>
  <line x1="120" y1="500" x2="285" y2="500" class="line"/>
  <line x1="385" y1="470" x2="575" y2="470" class="line"/>
  <line x1="385" y1="500" x2="550" y2="500" class="line"/>
  <line x1="650" y1="470" x2="840" y2="470" class="line"/>
  <line x1="650" y1="500" x2="815" y2="500" class="line"/>

</svg>
