<svg xmlns="http://www.w3.org/2000/svg" width="960" height="680" viewBox="0 0 960 680" role="img">
  <defs>
    <style>
      text { font-family: Arial, Helvetica, sans-serif; fill: #000; }
      .page { fill: #fff; stroke: #000; stroke-width: 2; }
      .chrome { fill: #fff; stroke: #000; stroke-width: 2; }
      .box { fill: #fff; stroke: #000; stroke-width: 1.6; rx: 4; }
      .button { fill: #fff; stroke: #000; stroke-width: 2; rx: 4; }
      .line { stroke: #000; stroke-width: 1.5; }
      .dash { stroke: #000; stroke-width: 1.4; stroke-dasharray: 6 5; fill: none; }
      .title { font-size: 22px; font-weight: 700; }
      .label { font-size: 16px; font-weight: 700; }
      .smallBold { font-size: 13px; font-weight: 700; }
      .small { font-size: 13px; }
      .tiny { font-size: 11px; }
    </style>
  </defs>
  <rect width="960" height="680" fill="#fff"/>
  <text x="480" y="38" class="title" text-anchor="middle">Wireframe 03 - Dang ky va xac thuc OTP</text>
  <rect x="70" y="70" width="820" height="560" class="page"/>
  <rect x="70" y="70" width="820" height="42" class="chrome"/>
  <circle cx="94" cy="91" r="5" fill="#fff" stroke="#000" stroke-width="1.5"/>
  <circle cx="114" cy="91" r="5" fill="#fff" stroke="#000" stroke-width="1.5"/>
  <circle cx="134" cy="91" r="5" fill="#fff" stroke="#000" stroke-width="1.5"/>
  <rect x="170" y="82" width="470" height="18" class="box"/>
  
  <rect x="115" y="150" width="330" height="400" class="box"/>
  <text x="280" y="190" class="label" text-anchor="middle">DANG KY TAI KHOAN</text>
  <text x="155" y="227" class="tiny" text-anchor="start">Ho ten</text>
<rect x="155" y="235" width="250" height="34" class="box"/>
  <text x="155" y="292" class="tiny" text-anchor="start">Email</text>
<rect x="155" y="300" width="250" height="34" class="box"/>
  <text x="155" y="357" class="tiny" text-anchor="start">So dien thoai</text>
<rect x="155" y="365" width="250" height="34" class="box"/>
  <text x="155" y="422" class="tiny" text-anchor="start">Mat khau</text>
<rect x="155" y="430" width="250" height="34" class="box"/>
  <rect x="155" y="495" width="250" height="34" class="button"/>
<text x="280" y="517" class="smallBold" text-anchor="middle">Gui dang ky</text>

  <rect x="515" y="150" width="330" height="400" class="box"/>
  <text x="680" y="190" class="label" text-anchor="middle">XAC THUC OTP</text>
  <text x="680" y="230" class="small" text-anchor="middle">Nhap ma OTP da gui qua email</text>
  <text x="555" y="277" class="tiny" text-anchor="start">Ma OTP</text>
<rect x="555" y="285" width="250" height="34" class="box"/>
  <rect x="555" y="355" width="250" height="34" class="button"/>
<text x="680" y="377" class="smallBold" text-anchor="middle">Xac thuc</text>
  <rect x="555" y="420" width="250" height="34" class="button"/>
<text x="680" y="442" class="smallBold" text-anchor="middle">Gui lai OTP</text>

</svg>
