<svg xmlns="http://www.w3.org/2000/svg" width="960" height="680" viewBox="0 0 960 680" role="img">
  <defs>
    <style>
      text { font-family: Arial, Helvetica, sans-serif; fill: #000; }
      .page { fill: #fff; stroke: #000; stroke-width: 2; }
      .chrome { fill: #fff; stroke: #000; stroke-width: 2; }
      .box { fill: #fff; stroke: #000; stroke-width: 1.6; rx: 4; }
      .button { fill: #fff; stroke: #000; stroke-width: 2; rx: 4; }
      .line { stroke: #000; stroke-width: 1.5; }
      .dash { stroke: #000; stroke-width: 1.4; stroke-dasharray: 6 5; fill: none; }
      .title { font-size: 22px; font-weight: 700; }
      .label { font-size: 16px; font-weight: 700; }
      .smallBold { font-size: 13px; font-weight: 700; }
      .small { font-size: 13px; }
      .tiny { font-size: 11px; }
    </style>
  </defs>
  <rect width="960" height="680" fill="#fff"/>
  <text x="480" y="38" class="title" text-anchor="middle">Wireframe 06 - Thong bao</text>
  <rect x="70" y="70" width="820" height="560" class="page"/>
  <rect x="70" y="70" width="820" height="42" class="chrome"/>
  <circle cx="94" cy="91" r="5" fill="#fff" stroke="#000" stroke-width="1.5"/>
  <circle cx="114" cy="91" r="5" fill="#fff" stroke="#000" stroke-width="1.5"/>
  <circle cx="134" cy="91" r="5" fill="#fff" stroke="#000" stroke-width="1.5"/>
  <rect x="170" y="82" width="470" height="18" class="box"/>
  
  <rect x="100" y="135" width="170" height="470" class="box"/>
  <text x="185" y="170" class="label" text-anchor="middle">MENU</text>
  <text x="130" y="215" class="small" text-anchor="start">Tai khoan</text>
  <text x="130" y="250" class="small" text-anchor="start">Ho so</text>
  <text x="130" y="285" class="smallBold" text-anchor="start">Thong bao</text>

  <rect x="310" y="135" width="550" height="470" class="box"/>
  <text x="335" y="175" class="label" text-anchor="start">Thong bao cua toi</text>
  <rect x="685" y="150" width="140" height="34" class="button"/>
<text x="755" y="172" class="smallBold" text-anchor="middle">Danh dau tat ca</text>
  <rect x="335" y="215" width="490" height="70" class="box"/>
  <rect x="335" y="310" width="490" height="70" class="box"/>
  <rect x="335" y="405" width="490" height="70" class="box"/>
  <line x1="360" y1="245" x2="790" y2="245" class="line"/>
  <line x1="360" y1="340" x2="790" y2="340" class="line"/>
  <line x1="360" y1="435" x2="790" y2="435" class="line"/>
  <text x="580" y="535" class="small" text-anchor="middle">Trang thai rong / loi tai du lieu neu co</text>

</svg>
