<svg xmlns="http://www.w3.org/2000/svg" width="960" height="680" viewBox="0 0 960 680" role="img">
  <defs>
    <style>
      text { font-family: Arial, Helvetica, sans-serif; fill: #000; }
      .page { fill: #fff; stroke: #000; stroke-width: 2; }
      .chrome { fill: #fff; stroke: #000; stroke-width: 2; }
      .box { fill: #fff; stroke: #000; stroke-width: 1.6; rx: 4; }
      .button { fill: #fff; stroke: #000; stroke-width: 2; rx: 4; }
      .line { stroke: #000; stroke-width: 1.5; }
      .dash { stroke: #000; stroke-width: 1.4; stroke-dasharray: 6 5; fill: none; }
      .title { font-size: 22px; font-weight: 700; }
      .label { font-size: 16px; font-weight: 700; }
      .smallBold { font-size: 13px; font-weight: 700; }
      .small { font-size: 13px; }
      .tiny { font-size: 11px; }
    </style>
  </defs>
  <rect width="960" height="680" fill="#fff"/>
  <text x="480" y="38" class="title" text-anchor="middle">Wireframe 07 - Dashboard quan tri</text>
  <rect x="70" y="70" width="820" height="560" class="page"/>
  <rect x="70" y="70" width="820" height="42" class="chrome"/>
  <circle cx="94" cy="91" r="5" fill="#fff" stroke="#000" stroke-width="1.5"/>
  <circle cx="114" cy="91" r="5" fill="#fff" stroke="#000" stroke-width="1.5"/>
  <circle cx="134" cy="91" r="5" fill="#fff" stroke="#000" stroke-width="1.5"/>
  <rect x="170" y="82" width="470" height="18" class="box"/>
  
  <rect x="100" y="135" width="170" height="470" class="box"/>
  <text x="185" y="170" class="label" text-anchor="middle">ADMIN MENU</text>
  <text x="130" y="215" class="smallBold" text-anchor="start">Dashboard</text>
  <text x="130" y="250" class="small" text-anchor="start">Nguoi dung</text>
  <text x="130" y="285" class="small" text-anchor="start">Ho so</text>
  <text x="130" y="320" class="small" text-anchor="start">Ky thi / Diem</text>
  <text x="130" y="355" class="small" text-anchor="start">Noi dung</text>

  <rect x="310" y="135" width="550" height="90" class="box"/>
  <text x="335" y="175" class="label" text-anchor="start">Tong quan thong ke</text>
  <rect x="310" y="255" width="120" height="80" class="box"/>
  <rect x="455" y="255" width="120" height="80" class="box"/>
  <rect x="600" y="255" width="120" height="80" class="box"/>
  <rect x="745" y="255" width="115" height="80" class="box"/>
  <text x="370" y="300" class="small" text-anchor="middle">Users</text>
  <text x="515" y="300" class="small" text-anchor="middle">Ho so</text>
  <text x="660" y="300" class="small" text-anchor="middle">Doanh thu</text>
  <text x="802" y="300" class="small" text-anchor="middle">Cho xu ly</text>
  <rect x="310" y="370" width="550" height="185" class="box"/>
  <text x="585" y="410" class="label" text-anchor="middle">Bieu do / bang tong quan</text>
  <line x1="340" y1="455" x2="830" y2="455" class="line"/>
  <line x1="340" y1="495" x2="830" y2="495" class="line"/>

</svg>
