<svg xmlns="http://www.w3.org/2000/svg" width="960" height="680" viewBox="0 0 960 680" role="img">
  <defs>
    <style>
      text { font-family: Arial, Helvetica, sans-serif; fill: #000; }
      .page { fill: #fff; stroke: #000; stroke-width: 2; }
      .chrome { fill: #fff; stroke: #000; stroke-width: 2; }
      .box { fill: #fff; stroke: #000; stroke-width: 1.6; rx: 4; }
      .button { fill: #fff; stroke: #000; stroke-width: 2; rx: 4; }
      .line { stroke: #000; stroke-width: 1.5; }
      .dash { stroke: #000; stroke-width: 1.4; stroke-dasharray: 6 5; fill: none; }
      .title { font-size: 22px; font-weight: 700; }
      .label { font-size: 16px; font-weight: 700; }
      .smallBold { font-size: 13px; font-weight: 700; }
      .small { font-size: 13px; }
      .tiny { font-size: 11px; }
    </style>
  </defs>
  <rect width="960" height="680" fill="#fff"/>
  <text x="480" y="38" class="title" text-anchor="middle">Wireframe 08 - Man hinh quan ly admin</text>
  <rect x="70" y="70" width="820" height="560" class="page"/>
  <rect x="70" y="70" width="820" height="42" class="chrome"/>
  <circle cx="94" cy="91" r="5" fill="#fff" stroke="#000" stroke-width="1.5"/>
  <circle cx="114" cy="91" r="5" fill="#fff" stroke="#000" stroke-width="1.5"/>
  <circle cx="134" cy="91" r="5" fill="#fff" stroke="#000" stroke-width="1.5"/>
  <rect x="170" y="82" width="470" height="18" class="box"/>
  
  <rect x="100" y="135" width="170" height="470" class="box"/>
  <text x="185" y="170" class="label" text-anchor="middle">ADMIN MENU</text>
  <text x="130" y="215" class="small" text-anchor="start">Nguoi dung</text>
  <text x="130" y="250" class="small" text-anchor="start">Ho so</text>
  <text x="130" y="285" class="small" text-anchor="start">Ky thi</text>
  <text x="130" y="320" class="small" text-anchor="start">Diem thi</text>
  <text x="130" y="355" class="small" text-anchor="start">Noi dung</text>

  <rect x="310" y="135" width="550" height="60" class="box"/>
  <text x="335" y="172" class="label" text-anchor="start">Tieu de module quan ly</text>
  <rect x="650" y="148" width="80" height="34" class="button"/>
<text x="690" y="170" class="smallBold" text-anchor="middle">Them</text>
  <rect x="750" y="148" width="80" height="34" class="button"/>
<text x="790" y="170" class="smallBold" text-anchor="middle">Export</text>

  <rect x="310" y="220" width="550" height="65" class="box"/>
  <text x="335" y="258" class="small" text-anchor="start">Bo loc / Tim kiem / Trang thai / Ngay</text>

  <rect x="310" y="315" width="550" height="240" class="box"/>
  <text x="335" y="350" class="label" text-anchor="start">Bang du lieu</text>
  <line x1="335" y1="385" x2="835" y2="385" class="line"/>
  <line x1="335" y1="425" x2="835" y2="425" class="line"/>
  <line x1="335" y1="465" x2="835" y2="465" class="line"/>
  <line x1="335" y1="505" x2="835" y2="505" class="line"/>
  <text x="585" y="585" class="small" text-anchor="middle">Cot hanh dong: xem / sua / khoa / xoa mem</text>

</svg>
