<?xml version="1.0" encoding="UTF-8"?>
<svg xmlns="http://www.w3.org/2000/svg" width="1123" height="794" viewBox="0 0 1123 794">
<style>
  .box{fill:#fff;stroke:#222;stroke-width:1.5}
  .plain{stroke:#222;stroke-width:1.35;fill:none}
  .txt{font-family:Arial,Helvetica,sans-serif;font-size:14px;fill:#111}
  .head{font-family:Arial,Helvetica,sans-serif;font-size:16px;font-weight:700;fill:#111}
  .stereo{font-family:Arial,Helvetica,sans-serif;font-size:14px;fill:#111}
  .title{font-family:Arial,Helvetica,sans-serif;font-size:20px;font-weight:700;fill:#111}
  .small{font-family:Arial,Helvetica,sans-serif;font-size:13px;fill:#111}
</style>
<text x="561.5" y="34" text-anchor="middle" class="title">BIEU DO LOP PHAN TICH - UC08 NỘP HỒ SƠ GỐC</text>

  <rect x="42" y="88" width="320" height="148" class="box"/>
  <line x1="42" y1="146" x2="362" y2="146" class="plain"/>
  <line x1="42" y1="180" x2="362" y2="180" class="plain"/>
  <text x="202" y="112" text-anchor="middle" class="stereo">&lt;&lt;boundary&gt;&gt;</text>
  <text x="202" y="136" text-anchor="middle" class="head">NopHoSoGocUI</text>
  
  <text x="58" y="204" class="txt">+ chonChucNang()</text>
<text x="58" y="224" class="txt">+ hienThiKetQua()</text>


  <rect x="410" y="88" width="290" height="148" class="box"/>
  <line x1="410" y1="146" x2="700" y2="146" class="plain"/>
  <line x1="410" y1="180" x2="700" y2="180" class="plain"/>
  <text x="555" y="112" text-anchor="middle" class="stereo">&lt;&lt;control&gt;&gt;</text>
  <text x="555" y="136" text-anchor="middle" class="head">EnrollmentController</text>
  
  <text x="426" y="204" class="txt">+ xuLyYeuCau()</text>
<text x="426" y="224" class="txt">+ traKetQua()</text>

<line x1="362" y1="152" x2="410" y2="152" class="plain"/>
<text x="378" y="144" class="small">1</text>
<text x="396" y="144" class="small">1</text>

  <rect x="760" y="88" width="320" height="250" class="box"/>
  <line x1="760" y1="146" x2="1080" y2="146" class="plain"/>
  <line x1="760" y1="282" x2="1080" y2="282" class="plain"/>
  <text x="920" y="112" text-anchor="middle" class="stereo">&lt;&lt;entity&gt;&gt;</text>
  <text x="920" y="136" text-anchor="middle" class="head">ENROLLMENT_FORMS</text>
  <text x="776" y="170" class="txt">- user_id</text>
<text x="776" y="190" class="txt">- current_step</text>
<text x="776" y="210" class="txt">- status</text>
<text x="776" y="230" class="txt">- payment_status</text>
<text x="776" y="250" class="txt">- exam_score</text>
<text x="776" y="270" class="txt">- program_id</text>
  <text x="776" y="306" class="txt">+ find()</text>
<text x="776" y="326" class="txt">+ createOrUpdate()</text>


  <rect x="760" y="253" width="320" height="170" class="box"/>
  <line x1="760" y1="311" x2="1080" y2="311" class="plain"/>
  <line x1="760" y1="367" x2="1080" y2="367" class="plain"/>
  <text x="920" y="277" text-anchor="middle" class="stereo">&lt;&lt;entity&gt;&gt;</text>
  <text x="920" y="301" text-anchor="middle" class="head">COUNTERS</text>
  <text x="776" y="335" class="txt">- counter_key</text>
<text x="776" y="355" class="txt">- current_value</text>
  <text x="776" y="391" class="txt">+ find()</text>
<text x="776" y="411" class="txt">+ createOrUpdate()</text>


  <rect x="760" y="418" width="320" height="250" class="box"/>
  <line x1="760" y1="476" x2="1080" y2="476" class="plain"/>
  <line x1="760" y1="612" x2="1080" y2="612" class="plain"/>
  <text x="920" y="442" text-anchor="middle" class="stereo">&lt;&lt;entity&gt;&gt;</text>
  <text x="920" y="466" text-anchor="middle" class="head">ENROLLMENT_LOGS</text>
  <text x="776" y="500" class="txt">- enrollment_id</text>
<text x="776" y="520" class="txt">- changed_by</text>
<text x="776" y="540" class="txt">- action</text>
<text x="776" y="560" class="txt">- field_name</text>
<text x="776" y="580" class="txt">- old_value</text>
<text x="776" y="600" class="txt">- new_value</text>
  <text x="776" y="636" class="txt">+ find()</text>
<text x="776" y="656" class="txt">+ createOrUpdate()</text>

<line x1="700" y1="166" x2="760" y2="150" class="plain"/>
  <text x="714" y="142" class="small">1</text>
  <text x="746" y="142" class="small">n</text>
<line x1="700" y1="166" x2="760" y2="315" class="plain"/>
  <text x="714" y="307" class="small">1</text>
  <text x="746" y="307" class="small">n</text>
<line x1="700" y1="166" x2="760" y2="480" class="plain"/>
  <text x="714" y="472" class="small">1</text>
  <text x="746" y="472" class="small">n</text>
</svg>