<?xml version="1.0" encoding="UTF-8"?>
<svg xmlns="http://www.w3.org/2000/svg" width="1123" height="794" viewBox="0 0 1123 794">
<style>
  .box{fill:#fff;stroke:#222;stroke-width:1.5}
  .plain{stroke:#222;stroke-width:1.35;fill:none}
  .txt{font-family:Arial,Helvetica,sans-serif;font-size:14px;fill:#111}
  .head{font-family:Arial,Helvetica,sans-serif;font-size:16px;font-weight:700;fill:#111}
  .stereo{font-family:Arial,Helvetica,sans-serif;font-size:14px;fill:#111}
  .title{font-family:Arial,Helvetica,sans-serif;font-size:20px;font-weight:700;fill:#111}
  .small{font-family:Arial,Helvetica,sans-serif;font-size:13px;fill:#111}
</style>
<text x="561.5" y="34" text-anchor="middle" class="title">BIEU DO LOP PHAN TICH - UC17 GỬI THÔNG BÁO</text>

  <rect x="42" y="88" width="320" height="148" class="box"/>
  <line x1="42" y1="146" x2="362" y2="146" class="plain"/>
  <line x1="42" y1="180" x2="362" y2="180" class="plain"/>
  <text x="202" y="112" text-anchor="middle" class="stereo">&lt;&lt;boundary&gt;&gt;</text>
  <text x="202" y="136" text-anchor="middle" class="head">GuiThongBaoUI</text>
  
  <text x="58" y="204" class="txt">+ chonChucNang()</text>
<text x="58" y="224" class="txt">+ hienThiKetQua()</text>


  <rect x="410" y="88" width="290" height="148" class="box"/>
  <line x1="410" y1="146" x2="700" y2="146" class="plain"/>
  <line x1="410" y1="180" x2="700" y2="180" class="plain"/>
  <text x="555" y="112" text-anchor="middle" class="stereo">&lt;&lt;control&gt;&gt;</text>
  <text x="555" y="136" text-anchor="middle" class="head">AdminController</text>
  
  <text x="426" y="204" class="txt">+ xuLyYeuCau()</text>
<text x="426" y="224" class="txt">+ traKetQua()</text>

<line x1="362" y1="152" x2="410" y2="152" class="plain"/>
<text x="378" y="144" class="small">1</text>
<text x="396" y="144" class="small">1</text>

  <rect x="760" y="88" width="320" height="270" class="box"/>
  <line x1="760" y1="146" x2="1080" y2="146" class="plain"/>
  <line x1="760" y1="302" x2="1080" y2="302" class="plain"/>
  <text x="920" y="112" text-anchor="middle" class="stereo">&lt;&lt;entity&gt;&gt;</text>
  <text x="920" y="136" text-anchor="middle" class="head">USERS</text>
  <text x="776" y="170" class="txt">- _id</text>
<text x="776" y="190" class="txt">- email</text>
<text x="776" y="210" class="txt">- password_hash</text>
<text x="776" y="230" class="txt">- full_name</text>
<text x="776" y="250" class="txt">- phone</text>
<text x="776" y="270" class="txt">- role</text>
<text x="776" y="290" class="txt">- is_active</text>
  <text x="776" y="326" class="txt">+ find()</text>
<text x="776" y="346" class="txt">+ createOrUpdate()</text>


  <rect x="760" y="253" width="320" height="230" class="box"/>
  <line x1="760" y1="311" x2="1080" y2="311" class="plain"/>
  <line x1="760" y1="427" x2="1080" y2="427" class="plain"/>
  <text x="920" y="277" text-anchor="middle" class="stereo">&lt;&lt;entity&gt;&gt;</text>
  <text x="920" y="301" text-anchor="middle" class="head">NOTIFICATIONS</text>
  <text x="776" y="335" class="txt">- user_id</text>
<text x="776" y="355" class="txt">- title</text>
<text x="776" y="375" class="txt">- message</text>
<text x="776" y="395" class="txt">- type</text>
<text x="776" y="415" class="txt">- is_read</text>
  <text x="776" y="451" class="txt">+ find()</text>
<text x="776" y="471" class="txt">+ createOrUpdate()</text>

<line x1="700" y1="166" x2="760" y2="150" class="plain"/>
  <text x="714" y="142" class="small">1</text>
  <text x="746" y="142" class="small">n</text>
<line x1="700" y1="166" x2="760" y2="315" class="plain"/>
  <text x="714" y="307" class="small">1</text>
  <text x="746" y="307" class="small">n</text>
</svg>