<?xml version="1.0" encoding="UTF-8"?>
<svg xmlns="http://www.w3.org/2000/svg" width="1123" height="1030" viewBox="0 0 1123 1030">
<style>
  .box{fill:#fff;stroke:#222;stroke-width:1.5}
  .plain{stroke:#222;stroke-width:1.35;fill:none}
  .txt{font-family:Arial,Helvetica,sans-serif;font-size:14px;fill:#111}
  .head{font-family:Arial,Helvetica,sans-serif;font-size:16px;font-weight:700;fill:#111}
  .stereo{font-family:Arial,Helvetica,sans-serif;font-size:14px;fill:#111}
  .title{font-family:Arial,Helvetica,sans-serif;font-size:20px;font-weight:700;fill:#111}
  .small{font-family:Arial,Helvetica,sans-serif;font-size:13px;fill:#111}
</style>
<text x="561.5" y="34" text-anchor="middle" class="title">BIEU DO LOP PHAN TICH - UC14 QUẢN LÝ THI VÀ ĐIỂM</text>

  <rect x="42" y="88" width="320" height="148" class="box"/>
  <line x1="42" y1="146" x2="362" y2="146" class="plain"/>
  <line x1="42" y1="180" x2="362" y2="180" class="plain"/>
  <text x="202" y="112" text-anchor="middle" class="stereo">&lt;&lt;boundary&gt;&gt;</text>
  <text x="202" y="136" text-anchor="middle" class="head">QuanLyThiVaDiemUI</text>
  
  <text x="58" y="204" class="txt">+ chonChucNang()</text>
<text x="58" y="224" class="txt">+ hienThiKetQua()</text>


  <rect x="410" y="88" width="290" height="148" class="box"/>
  <line x1="410" y1="146" x2="700" y2="146" class="plain"/>
  <line x1="410" y1="180" x2="700" y2="180" class="plain"/>
  <text x="555" y="112" text-anchor="middle" class="stereo">&lt;&lt;control&gt;&gt;</text>
  <text x="555" y="136" text-anchor="middle" class="head">AdminController</text>
  
  <text x="426" y="204" class="txt">+ xuLyYeuCau()</text>
<text x="426" y="224" class="txt">+ traKetQua()</text>

<line x1="362" y1="152" x2="410" y2="152" class="plain"/>
<text x="378" y="144" class="small">1</text>
<text x="396" y="144" class="small">1</text>

  <rect x="760" y="88" width="320" height="250" class="box"/>
  <line x1="760" y1="146" x2="1080" y2="146" class="plain"/>
  <line x1="760" y1="282" x2="1080" y2="282" class="plain"/>
  <text x="920" y="112" text-anchor="middle" class="stereo">&lt;&lt;entity&gt;&gt;</text>
  <text x="920" y="136" text-anchor="middle" class="head">EXAM_SCHEDULES</text>
  <text x="776" y="170" class="txt">- title</text>
<text x="776" y="190" class="txt">- language</text>
<text x="776" y="210" class="txt">- exam_date</text>
<text x="776" y="230" class="txt">- location</text>
<text x="776" y="250" class="txt">- max_slots</text>
<text x="776" y="270" class="txt">- status</text>
  <text x="776" y="306" class="txt">+ find()</text>
<text x="776" y="326" class="txt">+ createOrUpdate()</text>


  <rect x="760" y="253" width="320" height="230" class="box"/>
  <line x1="760" y1="311" x2="1080" y2="311" class="plain"/>
  <line x1="760" y1="427" x2="1080" y2="427" class="plain"/>
  <text x="920" y="277" text-anchor="middle" class="stereo">&lt;&lt;entity&gt;&gt;</text>
  <text x="920" y="301" text-anchor="middle" class="head">EXAM_ROOMS</text>
  <text x="776" y="335" class="txt">- schedule_id</text>
<text x="776" y="355" class="txt">- name</text>
<text x="776" y="375" class="txt">- capacity</text>
<text x="776" y="395" class="txt">- assigned_count</text>
<text x="776" y="415" class="txt">- location</text>
  <text x="776" y="451" class="txt">+ find()</text>
<text x="776" y="471" class="txt">+ createOrUpdate()</text>


  <rect x="760" y="418" width="320" height="230" class="box"/>
  <line x1="760" y1="476" x2="1080" y2="476" class="plain"/>
  <line x1="760" y1="592" x2="1080" y2="592" class="plain"/>
  <text x="920" y="442" text-anchor="middle" class="stereo">&lt;&lt;entity&gt;&gt;</text>
  <text x="920" y="466" text-anchor="middle" class="head">EXAM_REGISTRATIONS</text>
  <text x="776" y="500" class="txt">- user_id</text>
<text x="776" y="520" class="txt">- enrollment_id</text>
<text x="776" y="540" class="txt">- schedule_id</text>
<text x="776" y="560" class="txt">- exam_code</text>
<text x="776" y="580" class="txt">- status</text>
  <text x="776" y="616" class="txt">+ find()</text>
<text x="776" y="636" class="txt">+ createOrUpdate()</text>


  <rect x="760" y="583" width="320" height="230" class="box"/>
  <line x1="760" y1="641" x2="1080" y2="641" class="plain"/>
  <line x1="760" y1="757" x2="1080" y2="757" class="plain"/>
  <text x="920" y="607" text-anchor="middle" class="stereo">&lt;&lt;entity&gt;&gt;</text>
  <text x="920" y="631" text-anchor="middle" class="head">EXAM_SCORES</text>
  <text x="776" y="665" class="txt">- registration_id</text>
<text x="776" y="685" class="txt">- score</text>
<text x="776" y="705" class="txt">- level_passed</text>
<text x="776" y="725" class="txt">- pass_status</text>
<text x="776" y="745" class="txt">- status</text>
  <text x="776" y="781" class="txt">+ find()</text>
<text x="776" y="801" class="txt">+ createOrUpdate()</text>


  <rect x="760" y="748" width="320" height="250" class="box"/>
  <line x1="760" y1="806" x2="1080" y2="806" class="plain"/>
  <line x1="760" y1="942" x2="1080" y2="942" class="plain"/>
  <text x="920" y="772" text-anchor="middle" class="stereo">&lt;&lt;entity&gt;&gt;</text>
  <text x="920" y="796" text-anchor="middle" class="head">ENROLLMENT_FORMS</text>
  <text x="776" y="830" class="txt">- user_id</text>
<text x="776" y="850" class="txt">- current_step</text>
<text x="776" y="870" class="txt">- status</text>
<text x="776" y="890" class="txt">- payment_status</text>
<text x="776" y="910" class="txt">- exam_score</text>
<text x="776" y="930" class="txt">- program_id</text>
  <text x="776" y="966" class="txt">+ find()</text>
<text x="776" y="986" class="txt">+ createOrUpdate()</text>

<line x1="700" y1="166" x2="760" y2="150" class="plain"/>
  <text x="714" y="142" class="small">1</text>
  <text x="746" y="142" class="small">n</text>
<line x1="700" y1="166" x2="760" y2="315" class="plain"/>
  <text x="714" y="307" class="small">1</text>
  <text x="746" y="307" class="small">n</text>
<line x1="700" y1="166" x2="760" y2="480" class="plain"/>
  <text x="714" y="472" class="small">1</text>
  <text x="746" y="472" class="small">n</text>
<line x1="700" y1="166" x2="760" y2="645" class="plain"/>
  <text x="714" y="637" class="small">1</text>
  <text x="746" y="637" class="small">n</text>
<line x1="700" y1="166" x2="760" y2="810" class="plain"/>
  <text x="714" y="802" class="small">1</text>
  <text x="746" y="802" class="small">n</text>
</svg>